<?xml version="1.0" encoding="UTF-8"?>
<svg width="208px" height="243px" viewBox="0 0 208 243" version="1.1" xmlns="http://www.w3.org/2000/svg" xmlns:xlink="http://www.w3.org/1999/xlink">
    <!-- Generator: Sketch 48.2 (47327) - http://www.bohemiancoding.com/sketch -->
    <title>Progress</title>
    <desc>Created with Sketch.</desc>
    <defs>
        <rect id="path-1" x="0" y="0" width="197" height="238"></rect>
        <filter x="-4.6%" y="-2.9%" width="111.2%" height="109.2%" filterUnits="objectBoundingBox" id="filter-2">
            <feOffset dx="2" dy="4" in="SourceAlpha" result="shadowOffsetOuter1"></feOffset>
            <feGaussianBlur stdDeviation="3" in="shadowOffsetOuter1" result="shadowBlurOuter1"></feGaussianBlur>
            <feColorMatrix values="0 0 0 0 0   0 0 0 0 0   0 0 0 0 0  0 0 0 0.185546875 0" type="matrix" in="shadowBlurOuter1"></feColorMatrix>
        </filter>
        <path d="M44.024,78.568 C43.6559982,78.1199978 43.2040027,77.7760012 42.668,77.536 C42.1319973,77.2959988 41.5120035,77.176 40.808,77.176 C40.1039965,77.176 39.452003,77.3119986 38.852,77.584 C38.251997,77.8560014 37.7320022,78.2359976 37.292,78.724 C36.8519978,79.2120024 36.5080012,79.7919966 36.26,80.464 C36.0119988,81.1360034 35.888,81.8639961 35.888,82.648 C35.888,83.448004 36.0119988,84.1799967 36.26,84.844 C36.5080012,85.5080033 36.8479978,86.0839976 37.28,86.572 C37.7120022,87.0600024 38.2199971,87.4399986 38.804,87.712 C39.3880029,87.9840014 40.0159966,88.12 40.688,88.12 C41.4560038,88.12 42.135997,87.9600016 42.728,87.64 C43.320003,87.3199984 43.8079981,86.8720029 44.192,86.296 L47.312,88.624 C46.5919964,89.632005 45.6800055,90.3759976 44.576,90.856 C43.4719945,91.3360024 42.3360058,91.576 41.168,91.576 C39.8399934,91.576 38.6160056,91.3680021 37.496,90.952 C36.3759944,90.5359979 35.4080041,89.9400039 34.592,89.164 C33.7759959,88.3879961 33.1400023,87.4480055 32.684,86.344 C32.2279977,85.2399945 32,84.0080068 32,82.648 C32,81.2879932 32.2279977,80.0560055 32.684,78.952 C33.1400023,77.8479945 33.7759959,76.9080039 34.592,76.132 C35.4080041,75.3559961 36.3759944,74.7600021 37.496,74.344 C38.6160056,73.9279979 39.8399934,73.72 41.168,73.72 C41.6480024,73.72 42.1479974,73.7639996 42.668,73.852 C43.1880026,73.9400004 43.6999975,74.079999 44.204,74.272 C44.7080025,74.464001 45.1919977,74.7199984 45.656,75.04 C46.1200023,75.3600016 46.5359982,75.7519977 46.904,76.216 L44.024,78.568 Z M48.896,79.48 L52.496,79.48 L52.496,81.352 L52.544,81.352 C52.9280019,80.6319964 53.3839974,80.0920018 53.912,79.732 C54.4400026,79.3719982 55.103996,79.192 55.904,79.192 C56.112001,79.192 56.319999,79.1999999 56.528,79.216 C56.736001,79.2320001 56.9279991,79.2639998 57.104,79.312 L57.104,82.6 C56.8479987,82.5199996 56.5960012,82.4600002 56.348,82.42 C56.0999988,82.3799998 55.8400014,82.36 55.568,82.36 C54.8799966,82.36 54.336002,82.455999 53.936,82.648 C53.535998,82.840001 53.2280011,83.1079983 53.012,83.452 C52.7959989,83.7960017 52.6560003,84.2079976 52.592,84.688 C52.5279997,85.1680024 52.496,85.6959971 52.496,86.272 L52.496,91.144 L48.896,91.144 L48.896,79.48 Z M69.272,89.128 C68.6959971,89.8640037 67.9680044,90.431998 67.088,90.832 C66.2079956,91.232002 65.2960047,91.432 64.352,91.432 C63.4559955,91.432 62.612004,91.2880014 61.82,91 C61.027996,90.7119986 60.3400029,90.3000027 59.756,89.764 C59.1719971,89.2279973 58.7120017,88.5840038 58.376,87.832 C58.0399983,87.0799962 57.872,86.2400046 57.872,85.312 C57.872,84.3839954 58.0399983,83.5440038 58.376,82.792 C58.7120017,82.0399962 59.1719971,81.3960027 59.756,80.86 C60.3400029,80.3239973 61.027996,79.9120014 61.82,79.624 C62.612004,79.3359986 63.4559955,79.192 64.352,79.192 C65.1840042,79.192 65.9399966,79.3359986 66.62,79.624 C67.3000034,79.9120014 67.8759976,80.3239973 68.348,80.86 C68.8200024,81.3960027 69.1839987,82.0399962 69.44,82.792 C69.6960013,83.5440038 69.824,84.3839954 69.824,85.312 L69.824,86.44 L61.472,86.44 C61.6160007,87.1280034 61.9279976,87.675998 62.408,88.084 C62.8880024,88.492002 63.4799965,88.696 64.184,88.696 C64.776003,88.696 65.275998,88.5640013 65.684,88.3 C66.092002,88.0359987 66.4479985,87.6960021 66.752,87.28 L69.272,89.128 Z M66.224,83.992 C66.2400001,83.383997 66.0400021,82.8640022 65.624,82.432 C65.2079979,81.9999978 64.6720033,81.784 64.016,81.784 C63.615998,81.784 63.2640015,81.8479994 62.96,81.976 C62.6559985,82.1040006 62.3960011,82.267999 62.18,82.468 C61.9639989,82.668001 61.7960006,82.8999987 61.676,83.164 C61.5559994,83.4280013 61.4880001,83.7039986 61.472,83.992 L66.224,83.992 Z M79.328,89.68 L79.28,89.68 C78.879998,90.3040031 78.3480033,90.7519986 77.684,91.024 C77.0199967,91.2960014 76.3200037,91.432 75.584,91.432 C75.0399973,91.432 74.5160025,91.3560008 74.012,91.204 C73.5079975,91.0519992 73.0640019,90.8240015 72.68,90.52 C72.2959981,90.2159985 71.9920011,89.8400022 71.768,89.392 C71.5439989,88.9439978 71.432,88.424003 71.432,87.832 C71.432,87.1599966 71.5559988,86.5920023 71.804,86.128 C72.0520012,85.6639977 72.3879979,85.2800015 72.812,84.976 C73.2360021,84.6719985 73.7199973,84.4360008 74.264,84.268 C74.8080027,84.0999992 75.3719971,83.9760004 75.956,83.896 C76.5400029,83.8159996 77.1239971,83.7680001 77.708,83.752 C78.2920029,83.7359999 78.8319975,83.728 79.328,83.728 C79.328,83.0879968 79.1000023,82.5800019 78.644,82.204 C78.1879977,81.8279981 77.6480031,81.64 77.024,81.64 C76.431997,81.64 75.8920024,81.7639988 75.404,82.012 C74.9159976,82.2600012 74.4800019,82.5999978 74.096,83.032 L72.176,81.064 C72.8480034,80.4399969 73.6319955,79.9720016 74.528,79.66 C75.4240045,79.3479984 76.3519952,79.192 77.312,79.192 C78.3680053,79.192 79.2359966,79.3239987 79.916,79.588 C80.5960034,79.8520013 81.139998,80.2399974 81.548,80.752 C81.956002,81.2640026 82.2399992,81.8919963 82.4,82.636 C82.5600008,83.3800037 82.64,84.2399951 82.64,85.216 L82.64,91.144 L79.328,91.144 L79.328,89.68 Z M78.44,86.032 C78.1679986,86.032 77.828002,86.0439999 77.42,86.068 C77.011998,86.0920001 76.6200019,86.1599994 76.244,86.272 C75.8679981,86.3840006 75.5480013,86.5519989 75.284,86.776 C75.0199987,87.0000011 74.888,87.311998 74.888,87.712 C74.888,88.1440022 75.0719982,88.463999 75.44,88.672 C75.8080018,88.880001 76.191998,88.984 76.592,88.984 C76.9440018,88.984 77.2839984,88.9360005 77.612,88.84 C77.9400016,88.7439995 78.2319987,88.6080009 78.488,88.432 C78.7440013,88.2559991 78.9479992,88.0320014 79.1,87.76 C79.2520008,87.4879986 79.328,87.1680018 79.328,86.8 L79.328,86.032 L78.44,86.032 Z M92.84,82.36 L89.672,82.36 L89.672,86.248 C89.672,86.5680016 89.6879998,86.8599987 89.72,87.124 C89.7520002,87.3880013 89.8239994,87.615999 89.936,87.808 C90.0480006,88.000001 90.2199988,88.1479995 90.452,88.252 C90.6840012,88.3560005 90.9919981,88.408 91.376,88.408 C91.568001,88.408 91.8199984,88.3880002 92.132,88.348 C92.4440016,88.3079998 92.6799992,88.2160007 92.84,88.072 L92.84,91.072 C92.439998,91.2160007 92.0240022,91.3119998 91.592,91.36 C91.1599978,91.4080002 90.7360021,91.432 90.32,91.432 C89.711997,91.432 89.1520026,91.3680006 88.64,91.24 C88.1279974,91.1119994 87.6800019,90.9080014 87.296,90.628 C86.9119981,90.3479986 86.6120011,89.9840022 86.396,89.536 C86.1799989,89.0879978 86.072,88.5440032 86.072,87.904 L86.072,82.36 L83.768,82.36 L83.768,79.48 L86.072,79.48 L86.072,76.024 L89.672,76.024 L89.672,79.48 L92.84,79.48 L92.84,82.36 Z M94.232,85.312 C94.232,84.3839954 94.3999983,83.5440038 94.736,82.792 C95.0720017,82.0399962 95.5319971,81.3960027 96.116,80.86 C96.7000029,80.3239973 97.387996,79.9120014 98.18,79.624 C98.972004,79.3359986 99.8159955,79.192 100.712,79.192 C101.608004,79.192 102.451996,79.3359986 103.244,79.624 C104.036004,79.9120014 104.723997,80.3239973 105.308,80.86 C105.892003,81.3960027 106.351998,82.0399962 106.688,82.792 C107.024002,83.5440038 107.192,84.3839954 107.192,85.312 C107.192,86.2400046 107.024002,87.0799962 106.688,87.832 C106.351998,88.5840038 105.892003,89.2279973 105.308,89.764 C104.723997,90.3000027 104.036004,90.7119986 103.244,91 C102.451996,91.2880014 101.608004,91.432 100.712,91.432 C99.8159955,91.432 98.972004,91.2880014 98.18,91 C97.387996,90.7119986 96.7000029,90.3000027 96.116,89.764 C95.5319971,89.2279973 95.0720017,88.5840038 94.736,87.832 C94.3999983,87.0799962 94.232,86.2400046 94.232,85.312 Z M97.832,85.312 C97.832,86.1920044 98.0839975,86.9039973 98.588,87.448 C99.0920025,87.9920027 99.7999954,88.264 100.712,88.264 C101.624005,88.264 102.331997,87.9920027 102.836,87.448 C103.340003,86.9039973 103.592,86.1920044 103.592,85.312 C103.592,84.4319956 103.340003,83.7200027 102.836,83.176 C102.331997,82.6319973 101.624005,82.36 100.712,82.36 C99.7999954,82.36 99.0920025,82.6319973 98.588,83.176 C98.0839975,83.7200027 97.832,84.4319956 97.832,85.312 Z M109.304,79.48 L112.904,79.48 L112.904,81.352 L112.952,81.352 C113.336002,80.6319964 113.791997,80.0920018 114.32,79.732 C114.848003,79.3719982 115.511996,79.192 116.312,79.192 C116.520001,79.192 116.727999,79.1999999 116.936,79.216 C117.144001,79.2320001 117.335999,79.2639998 117.512,79.312 L117.512,82.6 C117.255999,82.5199996 117.004001,82.4600002 116.756,82.42 C116.507999,82.3799998 116.248001,82.36 115.976,82.36 C115.287997,82.36 114.744002,82.455999 114.344,82.648 C113.943998,82.840001 113.636001,83.1079983 113.42,83.452 C113.203999,83.7960017 113.064,84.2079976 113,84.688 C112.936,85.1680024 112.904,85.6959971 112.904,86.272 L112.904,91.144 L109.304,91.144 L109.304,79.48 Z M119.528,74.152 L123.272,74.152 L123.272,80.488 L130.544,80.488 L130.544,74.152 L134.288,74.152 L134.288,91.144 L130.544,91.144 L130.544,83.8 L123.272,83.8 L123.272,91.144 L119.528,91.144 L119.528,74.152 Z M148.52,91.144 L145.064,91.144 L145.064,89.56 L145.016,89.56 C144.887999,89.7840011 144.724001,90.0079989 144.524,90.232 C144.323999,90.4560011 144.080001,90.6559991 143.792,90.832 C143.503999,91.0080009 143.176002,91.1519994 142.808,91.264 C142.439998,91.3760006 142.040002,91.432 141.608,91.432 C140.695995,91.432 139.956003,91.2920014 139.388,91.012 C138.819997,90.7319986 138.380002,90.3440025 138.068,89.848 C137.755998,89.3519975 137.548001,88.7680034 137.444,88.096 C137.339999,87.4239966 137.288,86.6960039 137.288,85.912 L137.288,79.48 L140.888,79.48 L140.888,85.192 C140.888,85.5280017 140.9,85.8759982 140.924,86.236 C140.948,86.5960018 141.019999,86.9279985 141.14,87.232 C141.260001,87.5360015 141.443999,87.783999 141.692,87.976 C141.940001,88.168001 142.295998,88.264 142.76,88.264 C143.224002,88.264 143.599999,88.1800008 143.888,88.012 C144.176001,87.8439992 144.395999,87.6200014 144.548,87.34 C144.700001,87.0599986 144.8,86.7440018 144.848,86.392 C144.896,86.0399982 144.92,85.6720019 144.92,85.288 L144.92,79.48 L148.52,79.48 L148.52,91.144 Z M151.4,73 L155,73 L155,80.728 L155.048,80.728 C155.464002,80.1679972 155.995997,79.7720012 156.644,79.54 C157.292003,79.3079988 157.991996,79.192 158.744,79.192 C159.576004,79.192 160.319997,79.3639983 160.976,79.708 C161.632003,80.0520017 162.187998,80.5119971 162.644,81.088 C163.100002,81.6640029 163.451999,82.3239963 163.7,83.068 C163.948001,83.8120037 164.072,84.5919959 164.072,85.408 C164.072,86.2880044 163.936001,87.0959963 163.664,87.832 C163.391999,88.5680037 163.004003,89.2039973 162.5,89.74 C161.995997,90.2760027 161.392004,90.6919985 160.688,90.988 C159.983996,91.2840015 159.200004,91.432 158.336,91.432 C157.919998,91.432 157.528002,91.3760006 157.16,91.264 C156.791998,91.1519994 156.452002,91.0080009 156.14,90.832 C155.827998,90.6559991 155.556001,90.4600011 155.324,90.244 C155.091999,90.0279989 154.904001,89.816001 154.76,89.608 L154.712,89.608 L154.712,91.144 L151.4,91.144 L151.4,73 Z M154.712,85.312 C154.712,86.1920044 154.963997,86.9039973 155.468,87.448 C155.972003,87.9920027 156.679995,88.264 157.592,88.264 C158.504005,88.264 159.211997,87.9920027 159.716,87.448 C160.220003,86.9039973 160.472,86.1920044 160.472,85.312 C160.472,84.4319956 160.220003,83.7200027 159.716,83.176 C159.211997,82.6319973 158.504005,82.36 157.592,82.36 C156.679995,82.36 155.972003,82.6319973 155.468,83.176 C154.963997,83.7200027 154.712,84.4319956 154.712,85.312 Z" id="path-3"></path>
        <filter x="-17.0%" y="-126.5%" width="138.6%" height="374.5%" filterUnits="objectBoundingBox" id="filter-4">
            <feMorphology radius="2" operator="dilate" in="SourceAlpha" result="shadowSpreadOuter1"></feMorphology>
            <feOffset dx="3" dy="2" in="shadowSpreadOuter1" result="shadowOffsetOuter1"></feOffset>
            <feGaussianBlur stdDeviation="6" in="shadowOffsetOuter1" result="shadowBlurOuter1"></feGaussianBlur>
            <feColorMatrix values="0 0 0 0 0.969182167   0 0 0 0 0.690688515   0 0 0 0 0.98785608  0 0 0 0.629613904 0" type="matrix" in="shadowBlurOuter1"></feColorMatrix>
        </filter>
    </defs>
    <g id="Desktop-HD" stroke="none" stroke-width="1" fill="none" fill-rule="evenodd" transform="translate(-639.000000, -474.000000)">
        <g id="Progress" transform="translate(-1.000000, 336.000000)">
            <g id="CreatorHub" transform="translate(645.000000, 138.000000)">
                <g id="Group-3-Copy-2">
                    <g id="Rectangle">
                        <use fill="black" fill-opacity="1" filter="url(#filter-2)" xlink:href="#path-1"></use>
                        <use fill="#0028FF" fill-rule="evenodd" xlink:href="#path-1"></use>
                    </g>
                    <text id="CreatorHub-A-platfor" font-family="ArialMT, Arial" font-size="22" font-weight="normal" fill="#FFFFFF">
                        <tspan x="16" y="185">CreatorHub</tspan>
                        <tspan x="16" y="210" font-size="14">A platform for creators </tspan>
                        <tspan x="16" y="226" font-size="14">seeking for cooperations.</tspan>
                    </text>
                </g>
                <rect id="Rectangle-2-Copy" fill="#FFFFFF" x="0" y="0" width="198" height="154"></rect>
                <g>
                    <use fill="black" fill-opacity="1" filter="url(#filter-4)" xlink:href="#path-3"></use>
                    <use fill="#3A7EFA" fill-rule="evenodd" xlink:href="#path-3"></use>
                </g>
            </g>
            <rect id="Rectangle-4" x="0" y="0" width="1440" height="705"></rect>
        </g>
    </g>
</svg>