<?xml version="1.0" encoding="UTF-8"?>
<svg width="83px" height="114px" viewBox="0 0 83 114" version="1.1" xmlns="http://www.w3.org/2000/svg" xmlns:xlink="http://www.w3.org/1999/xlink">
    <!-- Generator: Sketch 48.2 (47327) - http://www.bohemiancoding.com/sketch -->
    <title>desktop-hd copy</title>
    <desc>Created with Sketch.</desc>
    <defs></defs>
    <g id="Artboard" stroke="none" stroke-width="1" fill="none" fill-rule="evenodd" transform="translate(-179.000000, -52.000000)">
        <g id="desktop-hd-copy" transform="translate(179.000000, 52.000000)">
            <g id="Group">
                <g id="a-link" transform="translate(1.000000, 1.000000)" fill="#EEF9FA" fill-rule="nonzero">
                    <rect id="a" x="0" y="0" width="80.588" height="84" rx="4"></rect>
                </g>
                <rect id="Rectangle-path" stroke="#4E78C6" x="0.5" y="0.5" width="81.588" height="85" rx="4"></rect>
                <rect id="Rectangle-path" stroke="#FFFFF8" stroke-width="3" x="2.5" y="2.5" width="77.588" height="81" rx="4"></rect>
            </g>
            <g id="Group" transform="translate(32.000000, 30.000000)">
                <g id="b-link" transform="translate(1.000000, 3.000000)" fill="#FCFFFF" fill-rule="nonzero">
                    <path d="M10.294,0 L2.294,0 C1.194,0 0.304,0.9 0.304,2 L0.294,18 C0.294,19.1 1.184,20 2.284,20 L14.294,20 C15.394,20 16.294,19.1 16.294,18 L16.294,6 L10.294,0 Z M4.294,16 L4.294,14 L12.294,14 L12.294,16 L4.294,16 Z M12.294,12 L4.294,12 L4.294,10 L12.294,10 L12.294,12 Z M9.294,7 L9.294,1.5 L14.794,7 L9.294,7 Z" id="b"></path>
                </g>
                <path d="M3.29399973,2.5 L11.4999988,2.5 L17.7929981,8.793 L17.7929981,21 C17.7929981,22.376 16.6689983,23.5 15.2929984,23.5 L3.28299973,23.5 C1.90550757,23.4961394 0.791339607,22.3774967 0.793,21 L0.802999999,5 C0.802999999,3.623 1.91799988,2.5 3.29299973,2.5 L3.29399973,2.5 Z M5.794,18.5 L12.794,18.5 L12.794,17.5 L5.794,17.5 L5.794,18.5 Z M12.794,14.5 L12.794,13.5 L5.794,13.5 L5.794,14.5 L12.794,14.5 Z M10.794,9.5 L14.587,9.5 L10.794,5.707 L10.794,9.5 Z" id="Shape" stroke="#4E78C6"></path>
                <path d="M10.672,4.5 L3.294,4.5 C3.02131104,4.50437877 2.80286957,4.72727823 2.804,5 L2.794,21 C2.794,21.276 3.016,21.5 3.284,21.5 L15.294,21.5 C15.565,21.5 15.794,21.272 15.794,21 L15.794,9.621 L10.672,4.5 Z M6.794,18.5 L6.794,17.5 L6.294,17.5 L5.794,18 L6.294,18.5 L6.794,18.5 Z M11.794,18.5 L12.294,18.5 L12.794,18 L12.294,17.5 L11.794,17.5 L11.794,18.5 Z M3.794,20.5 L3.794,15.5 L14.794,15.5 L14.794,20.5 L3.794,20.5 Z M12.294,13.5 L11.794,13.5 L11.794,14.5 L12.294,14.5 L12.794,14 L12.294,13.5 Z M6.794,13.5 L6.294,13.5 L5.794,14 L6.294,14.5 L6.794,14.5 L6.794,13.5 Z M14.794,16.5 L3.794,16.5 L3.794,11.5 L14.794,11.5 L14.794,16.5 Z M8.794,11.5 L8.794,0.879 L19.415,11.5 L8.794,11.5 Z" id="Shape"></path>
            </g>
            <g id="Group" transform="translate(7.000000, 95.000000)" fill="#FFFFFF" font-family="Avenir-Book, Avenir" font-size="18" font-weight="normal">
                <text id="Portfolio">
                    <tspan x="0" y="18">Portfolio</tspan>
                </text>
            </g>
        </g>
    </g>
</svg>